<mxfile host="65bd71144e">
    <diagram id="Ku_XO6FSWbqrS03iJ-NI" name="Page-1">
        <mxGraphModel dx="4033" dy="1047" grid="1" gridSize="10" guides="1" tooltips="1" connect="1" arrows="1" fold="1" page="1" pageScale="1" pageWidth="850" pageHeight="1100" math="0" shadow="0">
            <root>
                <mxCell id="0"/>
                <mxCell id="1" parent="0"/>
                <mxCell id="58" value="" style="rounded=0;whiteSpace=wrap;html=1;strokeWidth=2;fontSize=25;fillColor=#f8cecc;strokeColor=#b85450;fillStyle=hatch;" vertex="1" parent="1">
                    <mxGeometry x="-1090" y="620" width="680" height="220" as="geometry"/>
                </mxCell>
                <mxCell id="57" value="" style="rounded=0;whiteSpace=wrap;html=1;strokeWidth=2;fontSize=25;fillColor=#d5e8d4;strokeColor=#82b366;fillStyle=hatch;" vertex="1" parent="1">
                    <mxGeometry x="-1090" y="380" width="680" height="220" as="geometry"/>
                </mxCell>
                <mxCell id="9" style="edgeStyle=none;html=1;entryX=0;entryY=0.5;entryDx=0;entryDy=0;" parent="1" source="2" target="4" edge="1">
                    <mxGeometry relative="1" as="geometry"/>
                </mxCell>
                <mxCell id="27" style="edgeStyle=none;html=1;entryX=0.5;entryY=0;entryDx=0;entryDy=0;" parent="1" source="2" target="37" edge="1">
                    <mxGeometry relative="1" as="geometry">
                        <mxPoint x="410" y="375" as="targetPoint"/>
                    </mxGeometry>
                </mxCell>
                <mxCell id="2" value="input (terminal)" style="rounded=0;whiteSpace=wrap;html=1;" parent="1" vertex="1">
                    <mxGeometry x="210" y="105" width="120" height="60" as="geometry"/>
                </mxCell>
                <mxCell id="10" style="edgeStyle=none;html=1;exitX=1;exitY=0.5;exitDx=0;exitDy=0;entryX=0;entryY=0.5;entryDx=0;entryDy=0;" parent="1" source="4" target="5" edge="1">
                    <mxGeometry relative="1" as="geometry"/>
                </mxCell>
                <mxCell id="4" value="" style="rounded=0;whiteSpace=wrap;html=1;" parent="1" vertex="1">
                    <mxGeometry x="420" width="220" height="270" as="geometry"/>
                </mxCell>
                <mxCell id="12" style="edgeStyle=none;html=1;" parent="1" source="5" target="11" edge="1">
                    <mxGeometry relative="1" as="geometry"/>
                </mxCell>
                <mxCell id="5" value="LLM (Mistral)" style="rounded=0;whiteSpace=wrap;html=1;fillColor=#ffe6cc;strokeColor=#d79b00;dashed=1;strokeWidth=5;" parent="1" vertex="1">
                    <mxGeometry x="830" y="105" width="120" height="60" as="geometry"/>
                </mxCell>
                <mxCell id="6" value="System Prompt" style="rounded=0;whiteSpace=wrap;html=1;" parent="1" vertex="1">
                    <mxGeometry x="435" y="20" width="120" height="60" as="geometry"/>
                </mxCell>
                <mxCell id="7" value="Message" style="rounded=0;whiteSpace=wrap;html=1;" parent="1" vertex="1">
                    <mxGeometry x="435" y="100" width="120" height="60" as="geometry"/>
                </mxCell>
                <mxCell id="8" value="History" style="rounded=0;whiteSpace=wrap;html=1;" parent="1" vertex="1">
                    <mxGeometry x="435" y="180" width="120" height="60" as="geometry"/>
                </mxCell>
                <mxCell id="14" value="" style="edgeStyle=none;html=1;" parent="1" source="11" target="13" edge="1">
                    <mxGeometry relative="1" as="geometry"/>
                </mxCell>
                <mxCell id="11" value="Stream" style="rounded=0;whiteSpace=wrap;html=1;" parent="1" vertex="1">
                    <mxGeometry x="1020" y="105" width="120" height="60" as="geometry"/>
                </mxCell>
                <mxCell id="13" value="Chunk 1" style="whiteSpace=wrap;html=1;rounded=0;" parent="1" vertex="1">
                    <mxGeometry x="1200" y="60" width="120" height="60" as="geometry"/>
                </mxCell>
                <mxCell id="15" value="Chunk n" style="whiteSpace=wrap;html=1;rounded=0;" parent="1" vertex="1">
                    <mxGeometry x="1220" y="100" width="120" height="60" as="geometry"/>
                </mxCell>
                <mxCell id="17" value="webvtt" style="shape=document;whiteSpace=wrap;html=1;boundedLbl=1;" parent="1" vertex="1">
                    <mxGeometry x="-620" y="460" width="120" height="80" as="geometry"/>
                </mxCell>
                <mxCell id="52" style="edgeStyle=none;html=1;exitX=1;exitY=0.5;exitDx=0;exitDy=0;entryX=0;entryY=0;entryDx=0;entryDy=52.5;entryPerimeter=0;fontSize=25;" edge="1" parent="1" source="18" target="51">
                    <mxGeometry relative="1" as="geometry"/>
                </mxCell>
                <mxCell id="18" value="pdf" style="shape=document;whiteSpace=wrap;html=1;boundedLbl=1;" parent="1" vertex="1">
                    <mxGeometry x="-580" y="500" width="120" height="80" as="geometry"/>
                </mxCell>
                <mxCell id="21" style="edgeStyle=none;html=1;entryX=0;entryY=0.5;entryDx=0;entryDy=0;" parent="1" source="20" target="22" edge="1">
                    <mxGeometry relative="1" as="geometry">
                        <mxPoint x="-100" y="540.0000000000001" as="targetPoint"/>
                    </mxGeometry>
                </mxCell>
                <mxCell id="20" value="Split" style="rounded=0;whiteSpace=wrap;html=1;" parent="1" vertex="1">
                    <mxGeometry x="-240" y="510" width="120" height="60" as="geometry"/>
                </mxCell>
                <mxCell id="23" style="edgeStyle=none;html=1;exitX=1;exitY=0.5;exitDx=0;exitDy=0;entryX=0;entryY=0.5;entryDx=0;entryDy=0;" parent="1" source="22" target="24" edge="1">
                    <mxGeometry relative="1" as="geometry">
                        <mxPoint x="190" y="539.5" as="targetPoint"/>
                    </mxGeometry>
                </mxCell>
                <mxCell id="22" value="Embedding (Mistral)&lt;br&gt;documents" style="rounded=0;whiteSpace=wrap;html=1;fillColor=#ffe6cc;strokeColor=#d79b00;dashed=1;strokeWidth=5;" parent="1" vertex="1">
                    <mxGeometry x="-70" y="510" width="120" height="60" as="geometry"/>
                </mxCell>
                <mxCell id="29" value="" style="edgeStyle=none;html=1;" parent="1" source="24" target="28" edge="1">
                    <mxGeometry relative="1" as="geometry"/>
                </mxCell>
                <mxCell id="24" value="In Memory Vectory" style="rounded=0;whiteSpace=wrap;html=1;" parent="1" vertex="1">
                    <mxGeometry x="210" y="510" width="120" height="60" as="geometry"/>
                </mxCell>
                <mxCell id="30" style="edgeStyle=none;html=1;entryX=0;entryY=0.5;entryDx=0;entryDy=0;" parent="1" source="28" target="31" edge="1">
                    <mxGeometry relative="1" as="geometry">
                        <mxPoint x="740" y="540" as="targetPoint"/>
                    </mxGeometry>
                </mxCell>
                <mxCell id="28" value="Sub Document" style="whiteSpace=wrap;html=1;rounded=0;" parent="1" vertex="1">
                    <mxGeometry x="460" y="510" width="120" height="60" as="geometry"/>
                </mxCell>
                <mxCell id="36" style="edgeStyle=none;html=1;entryX=0.5;entryY=1;entryDx=0;entryDy=0;" parent="1" source="31" target="5" edge="1">
                    <mxGeometry relative="1" as="geometry"/>
                </mxCell>
                <mxCell id="31" value="" style="rounded=0;whiteSpace=wrap;html=1;" parent="1" vertex="1">
                    <mxGeometry x="750" y="405" width="280" height="270" as="geometry"/>
                </mxCell>
                <mxCell id="32" value="System Prompt" style="rounded=0;whiteSpace=wrap;html=1;" parent="1" vertex="1">
                    <mxGeometry x="765" y="425" width="120" height="60" as="geometry"/>
                </mxCell>
                <mxCell id="33" value="Message" style="rounded=0;whiteSpace=wrap;html=1;" parent="1" vertex="1">
                    <mxGeometry x="765" y="505" width="120" height="60" as="geometry"/>
                </mxCell>
                <mxCell id="34" value="History" style="rounded=0;whiteSpace=wrap;html=1;" parent="1" vertex="1">
                    <mxGeometry x="765" y="585" width="120" height="60" as="geometry"/>
                </mxCell>
                <mxCell id="35" value="Context: sub documents" style="rounded=0;whiteSpace=wrap;html=1;" parent="1" vertex="1">
                    <mxGeometry x="900" y="425" width="120" height="60" as="geometry"/>
                </mxCell>
                <mxCell id="38" style="edgeStyle=none;html=1;entryX=0.5;entryY=0;entryDx=0;entryDy=0;" parent="1" source="37" target="24" edge="1">
                    <mxGeometry relative="1" as="geometry"/>
                </mxCell>
                <mxCell id="37" value="Embedding (Mistral) input" style="rounded=0;whiteSpace=wrap;html=1;fillColor=#ffe6cc;strokeColor=#d79b00;dashed=1;strokeWidth=5;" parent="1" vertex="1">
                    <mxGeometry x="210" y="310" width="120" height="60" as="geometry"/>
                </mxCell>
                <mxCell id="39" value="" style="image;html=1;image=img/lib/clip_art/general/Earth_globe_128x128.png" parent="1" vertex="1">
                    <mxGeometry x="20" y="580" width="80" height="80" as="geometry"/>
                </mxCell>
                <mxCell id="40" value="" style="image;html=1;image=img/lib/clip_art/general/Earth_globe_128x128.png" parent="1" vertex="1">
                    <mxGeometry x="340" y="340" width="80" height="80" as="geometry"/>
                </mxCell>
                <mxCell id="41" value="" style="image;html=1;image=img/lib/clip_art/general/Earth_globe_128x128.png" parent="1" vertex="1">
                    <mxGeometry x="930" y="170" width="80" height="80" as="geometry"/>
                </mxCell>
                <mxCell id="43" style="edgeStyle=none;html=1;entryX=0;entryY=0.5;entryDx=0;entryDy=0;" edge="1" parent="1" source="42" target="17">
                    <mxGeometry relative="1" as="geometry"/>
                </mxCell>
                <mxCell id="42" value="vidéo&lt;br&gt;complète" style="rounded=0;whiteSpace=wrap;html=1;" vertex="1" parent="1">
                    <mxGeometry x="-880" y="470" width="120" height="60" as="geometry"/>
                </mxCell>
                <mxCell id="44" value="Batch&lt;br&gt;Layer" style="text;html=1;strokeColor=none;fillColor=none;align=center;verticalAlign=middle;whiteSpace=wrap;rounded=0;strokeWidth=2;fontSize=25;" vertex="1" parent="1">
                    <mxGeometry x="-1070" y="452.5" width="160" height="95" as="geometry"/>
                </mxCell>
                <mxCell id="56" style="edgeStyle=none;html=1;exitX=1;exitY=0.5;exitDx=0;exitDy=0;entryX=0;entryY=0.65;entryDx=0;entryDy=0;entryPerimeter=0;fontSize=25;" edge="1" parent="1" source="45" target="48">
                    <mxGeometry relative="1" as="geometry">
                        <mxPoint x="-730" y="725" as="sourcePoint"/>
                    </mxGeometry>
                </mxCell>
                <mxCell id="45" value="vidéo en cours de streaming" style="rounded=0;whiteSpace=wrap;html=1;" vertex="1" parent="1">
                    <mxGeometry x="-890" y="685" width="120" height="60" as="geometry"/>
                </mxCell>
                <mxCell id="48" value="webvtt.1" style="shape=tape;whiteSpace=wrap;html=1;strokeWidth=2;fontSize=25;" vertex="1" parent="1">
                    <mxGeometry x="-660" y="650" width="120" height="100" as="geometry"/>
                </mxCell>
                <mxCell id="54" style="edgeStyle=none;html=1;exitX=1;exitY=0.65;exitDx=0;exitDy=0;exitPerimeter=0;entryX=0.5;entryY=1;entryDx=0;entryDy=0;fontSize=25;" edge="1" parent="1" source="49" target="20">
                    <mxGeometry relative="1" as="geometry">
                        <Array as="points">
                            <mxPoint x="-180" y="730"/>
                        </Array>
                    </mxGeometry>
                </mxCell>
                <mxCell id="49" value="webvtt.2" style="shape=tape;whiteSpace=wrap;html=1;strokeWidth=2;fontSize=25;" vertex="1" parent="1">
                    <mxGeometry x="-540" y="665" width="120" height="100" as="geometry"/>
                </mxCell>
                <mxCell id="50" value="Speed Layer" style="text;html=1;strokeColor=none;fillColor=none;align=center;verticalAlign=middle;whiteSpace=wrap;rounded=0;strokeWidth=2;fontSize=25;" vertex="1" parent="1">
                    <mxGeometry x="-1070" y="667.5" width="160" height="95" as="geometry"/>
                </mxCell>
                <mxCell id="53" style="edgeStyle=none;html=1;exitX=1;exitY=0;exitDx=0;exitDy=52.5;exitPerimeter=0;entryX=0;entryY=0.5;entryDx=0;entryDy=0;fontSize=25;" edge="1" parent="1" source="51" target="20">
                    <mxGeometry relative="1" as="geometry"/>
                </mxCell>
                <mxCell id="51" value="" style="shape=cylinder3;whiteSpace=wrap;html=1;boundedLbl=1;backgroundOutline=1;size=15;strokeWidth=2;fontSize=25;" vertex="1" parent="1">
                    <mxGeometry x="-370" y="490" width="60" height="80" as="geometry"/>
                </mxCell>
                <mxCell id="55" value="Storage Layer" style="text;html=1;strokeColor=none;fillColor=none;align=center;verticalAlign=middle;whiteSpace=wrap;rounded=0;strokeWidth=2;fontSize=25;" vertex="1" parent="1">
                    <mxGeometry x="-400" y="370" width="160" height="95" as="geometry"/>
                </mxCell>
                <mxCell id="59" value="" style="rounded=0;whiteSpace=wrap;html=1;strokeWidth=2;fontSize=25;fillColor=#d5e8d4;strokeColor=#82b366;fillStyle=hatch;" vertex="1" parent="1">
                    <mxGeometry x="-400" y="380" width="160" height="220" as="geometry"/>
                </mxCell>
                <mxCell id="61" style="edgeStyle=none;html=1;entryX=0;entryY=0.5;entryDx=0;entryDy=0;fontSize=25;" edge="1" parent="1" source="60" target="57">
                    <mxGeometry relative="1" as="geometry"/>
                </mxCell>
                <mxCell id="62" style="edgeStyle=none;html=1;entryX=0;entryY=0.5;entryDx=0;entryDy=0;fontSize=25;" edge="1" parent="1" source="60" target="58">
                    <mxGeometry relative="1" as="geometry"/>
                </mxCell>
                <mxCell id="60" value="" style="sketch=0;outlineConnect=0;fontColor=#232F3E;gradientColor=none;fillColor=#232F3D;strokeColor=none;dashed=0;verticalLabelPosition=bottom;verticalAlign=top;align=center;html=1;fontSize=12;fontStyle=0;aspect=fixed;pointerEvents=1;shape=mxgraph.aws4.camera2;fillStyle=auto;strokeWidth=2;" vertex="1" parent="1">
                    <mxGeometry x="-1314" y="558" width="78" height="62" as="geometry"/>
                </mxCell>
            </root>
        </mxGraphModel>
    </diagram>
</mxfile>